PathFileType	4	(X/Y/Z)	pose_F01_0-90.trc
DataRate	CameraRate	NumFrames	NumMarkers	Units	OrigDataRate	OrigDataStartFrame	OrigNumFrames
30	30	6	21	m	30	56	90
Frame#	Time	CHip			RHip			RKnee			RAnkle			RBigToe			RSmallToe			RHeel			LHip			LKnee			LAnkle			LBigToe			LSmallToe			LHeel			Neck			Nose			RShoulder			RElbow			RWrist			LShoulder			LElbow			LWrist			
		X1	Y1	Z1	X2	Y2	Z2	X3	Y3	Z3	X4	Y4	Z4	X5	Y5	Z5	X6	Y6	Z6	X7	Y7	Z7	X8	Y8	Z8	X9	Y9	Z9	X10	Y10	Z10	X11	Y11	Z11	X12	Y12	Z12	X13	Y13	Z13	X14	Y14	Z14	X15	Y15	Z15	X16	Y16	Z16	X17	Y17	Z17	X18	Y18	Z18	X19	Y19	Z19	X20	Y20	Z20	X21	Y21	Z21	
56	1.8666666666666667	-0.2411654891402064	1.8925318195641438	-0.4124094664244965	-0.24828233135164912	1.8880187465611504	-0.3444752296331395	-0.24557557583687206	1.7323952172855785	-0.2997847236709929	-0.22683443489540223	1.58980554753309	-0.39350246483243995	-0.25971542425796035	1.5895219243307244	-0.2806357299020028	-0.25887322229915255	1.6006684810485294	-0.25855841219636067	-0.21901756539443307	1.5855285575464537	-0.39737967315356226	-0.23461164378591992	1.895358466675795	-0.47795606300392085	-0.23060255301661337	1.7411413703070653	-0.5287263421124501	-0.2029650343121669	1.5894860322495963	-0.5844966487031822	-0.2184654044213477	1.534217238703681	-0.597111852933649	-0.20823932096443873	1.5449493421586542	-0.6300363329066415	-0.19760049203525135	1.580052626181608	-0.5846505569770598	-0.23872359609261073	2.06638385599158	-0.44276181132047837	-0.2582459335009317	2.130909476577412	-0.40478213150801445	-0.24625523158245868	2.0619575456796326	-0.355392889276057	-0.268732333337921	2.002683838044567	-0.21377514637366565	-0.253265723259877	2.0336552354899013	-0.2693762223984895	-0.23476910021725414	2.0705038648206697	-0.5317447925451818	-0.27593599042999734	2.0037887174230313	-0.48256782171027984	-0.28171545301978973	2.0583940293459158	-0.41163310545213
57	1.9	-0.24739309050443972	1.8931595906163812	-0.3915599496795312	-0.2501926299518941	1.8899439438947616	-0.3195160788797341	-0.24643168980080385	1.731271889383809	-0.2937194140094076	-0.22683443489540223	1.58980554753309	-0.39350246483243995	-0.25971542425796035	1.5895219243307244	-0.2806357299020028	-0.25887322229915255	1.6006684810485294	-0.25855841219636067	-0.21901756539443307	1.5855285575464537	-0.39737967315356226	-0.2395653102618581	1.8952499029798417	-0.45893946794289736	-0.23557187094857934	1.7413074416638283	-0.5099882221770554	-0.20341176968291438	1.5946915775132937	-0.5804313968385013	-0.21445872107428185	1.5375529369015861	-0.5927653707189371	-0.20653804999654046	1.546541464719415	-0.6230745428276222	-0.19410800468028425	1.5871136749098314	-0.5847936313980209	-0.23880002928739547	2.066355755790465	-0.4435651266600994	-0.2612508842270048	2.132039363102606	-0.4141886465610191	-0.24368817520730127	2.0663104750840664	-0.36474045804503447	-0.2593125084080201	2.0141071063562572	-0.1978060044912557	-0.2650323562263505	2.0616052367465136	-0.2897943497000136	-0.2349469077495781	2.068129589224461	-0.5319442273014902	-0.27629735909131453	2.0002952924963746	-0.48270349544313335	-0.2727609926023086	2.0605661151786876	-0.43344111353166115
58	1.9333333333333333	-0.2439962642494945	1.8913210339348105	-0.3724443582073644	-0.24982076068280673	1.8897188744635929	-0.31030974994531724	-0.24462345800027566	1.7319628544714663	-0.2817192527527908	-0.22683443489540223	1.58980554753309	-0.39350246483243995	-0.25971542425796035	1.5895219243307244	-0.2806357299020028	-0.25887322229915255	1.6006684810485294	-0.25855841219636067	-0.21901756539443307	1.5855285575464537	-0.39737967315356226	-0.23902286763364564	1.8926332895787914	-0.44085722750888146	-0.23549557432939777	1.7373656810694502	-0.4918527172606173	-0.20337342207060694	1.5904253722351236	-0.5801299978278501	-0.21336463852965834	1.5373240484466402	-0.5895310621021078	-0.20529659550715668	1.5477983601994862	-0.620395463155162	-0.19817703329043002	1.5825327376290796	-0.5802969300199399	-0.23995898175439284	2.0589684240577055	-0.45301128467198115	-0.26009967074056006	2.1254457763898604	-0.4378980447321383	-0.24217455778985678	2.0621530579937586	-0.3742564963107514	-0.2638437032078367	2.015885311515291	-0.21114583792564515	-0.2672784168958586	2.0610365485149034	-0.29555173637520543	-0.23404647603850517	2.053955409224347	-0.53332757750605	-0.26814420846527687	1.9919221550607737	-0.44780657908372706	-0.2757356629801518	2.045368993037294	-0.42186818899737877
59	1.9666666666666666	-0.2431320063116697	1.8873458844142428	-0.3685079835463182	-0.248911637792245	1.8858058815653977	-0.30631226968267894	-0.2440843841263194	1.7304291746013416	-0.28679507356618855	-0.22683443489540223	1.58980554753309	-0.39350246483243995	-0.25971542425796035	1.5895219243307244	-0.2806357299020028	-0.25887322229915255	1.6006684810485294	-0.25855841219636067	-0.21901756539443307	1.5855285575464537	-0.39737967315356226	-0.2383667575118223	1.8875575595977538	-0.43686788928269393	-0.2405293795236441	1.7359625205170357	-0.4906856181625049	-0.20739899360184	1.590402729370425	-0.5846000618865762	-0.21547876974442565	1.5366843892560902	-0.5873774178900154	-0.21029251738737093	1.5458352231472832	-0.6195690543373007	-0.1987589268532546	1.581282035247216	-0.5926768904278245	-0.24018372141409394	2.0554851264688367	-0.46045796423456414	-0.2627504002325946	2.1209791473473714	-0.459693035396494	-0.24341141718145357	2.063140908163566	-0.38586589194314375	-0.25972882329235253	2.015714735235556	-0.22012832244722488	-0.2661263562114409	2.05323355923597	-0.32652627253013417	-0.2360648926663424	2.047943323510029	-0.5382525175553797	-1.7478064770151278	1.8898781324394283	1.1801877809861896	-0.27871033335799494	2.0301718708959005	-0.41029526446309644
60	2.0	-0.244052709203423	1.8818601410083344	-0.37078921988852287	-0.24964938265837516	1.8841333132187508	-0.30918232949579466	-0.24737546891517193	1.7245706239302951	-0.2821192960499187	-0.22683443489540223	1.58980554753309	-0.39350246483243995	-0.25971542425796035	1.5895219243307244	-0.2806357299020028	-0.25887322229915255	1.6006684810485294	-0.25855841219636067	-0.21901756539443307	1.5855285575464537	-0.39737967315356226	-0.23943558471507229	1.8807349667622333	-0.4390613498041081	-0.23984214482807578	1.7304064926073335	-0.5041145216596369	-0.20550576522879216	1.5828024969269545	-0.6078055563818732	-0.22059334366039002	1.534646558709635	-0.6037738247674764	-0.2112364486622752	1.5421360067590366	-0.6394454199922801	-0.19463723611840572	1.5772836910170986	-0.6185720408421456	-0.2393511813600666	2.0482878725016618	-0.46446768300747665	-0.2643457425942012	2.115152353046507	-0.4861688378558386	-0.24261275772619276	2.058425688351529	-0.3894389536531093	-0.26056708091783765	2.0138236826330496	-0.2220944205297029	-0.25564974304775273	2.042698707951872	-0.30215818764380753	-0.2343715998017976	2.0382944762325073	-0.5479716260705405	-0.2717653767774036	1.9576792941472543	-0.4581960646627477	-0.27792059491008314	2.039166228764903	-0.42632627438279025
61	2.033333333333333	-0.2440302471944711	1.8720178964589655	-0.3921856942208186	-0.25043984135240577	1.874127978052785	-0.3165268184200892	-0.24658877433210116	1.7215145512890817	-0.2921713034087237	-0.22683443489540223	1.58980554753309	-0.39350246483243995	-0.25971542425796035	1.5895219243307244	-0.2806357299020028	-0.25887322229915255	1.6006684810485294	-0.25855841219636067	-0.21901756539443307	1.5855285575464537	-0.39737967315356226	-0.23817496776303618	1.870126203614762	-0.45732489269868554	-0.23677066327968638	1.7282648210558749	-0.5204990231761295	-0.19866949486060434	1.5858587968324194	-0.6188399919981851	-0.21912464969407217	1.5329605238652133	-0.6263447888323985	-0.20807750991085178	1.5431437247361681	-0.6554441994753294	-0.1908570743927905	1.575068942541169	-0.6216259231774485	-0.23871145754271722	2.04677473273479	-0.48680086421432106	-0.2616558367480855	2.111251219230415	-0.5091629671004196	-0.24426123995935042	2.055664546062432	-0.40148840877180086	-0.2696099163032997	2.0054727326523527	-0.24473386599361088	-0.2650588688535459	2.0377668957323545	-0.342160663857883	-0.23432473249154656	2.033867987867291	-0.5646353712366783	-1.6726515883335278	1.8810776722828504	1.050440481957833	-0.28214566415129494	2.025914818556788	-0.47506248313275967
